<svg xmlns="http://www.w3.org/2000/svg" width="999" height="250" viewBox="0 0 999 250" version="1.1"><path d="M 120.500 53.601 C 96.988 55.048, 75.883 58.490, 69 62.002 C 64.345 64.377, 62.369 66.706, 60.477 72.050 C 59.043 76.101, 59.043 79.552, 60.479 110.500 C 61.346 129.200, 62.460 147.564, 62.955 151.310 C 64.452 162.649, 70.074 168, 80.490 168 C 87.344 168, 93.291 165.211, 96.035 160.710 C 97.767 157.869, 97.993 155.616, 97.996 141.135 L 98 124.770 103.250 125.353 C 106.138 125.674, 116.861 126.233, 127.080 126.595 C 146.650 127.288, 147.927 127.094, 152.750 122.701 L 155 120.651 155 123.616 C 155 125.246, 155.690 129.229, 156.533 132.467 C 163.255 158.272, 183.692 174, 210.500 174 C 237.213 174, 256.896 159.360, 264.949 133.500 C 265.977 130.200, 266.859 128.500, 266.909 129.721 C 267.048 133.112, 272.568 147.576, 275.123 151.245 C 287.911 169.608, 303.114 176.896, 326.254 175.758 C 342.998 174.933, 355.932 168.647, 365.629 156.621 C 372.701 147.849, 378 134.693, 378 125.906 C 378 123.967, 378.360 122.993, 378.871 123.550 C 379.351 124.072, 380.291 131.475, 380.960 140 C 382.863 164.233, 382.938 164.306, 408.173 166.591 C 433.374 168.873, 452.738 168.881, 461.736 166.615 C 473.159 163.736, 482.857 156.139, 489.864 144.577 C 498.256 130.731, 499.255 98.399, 491.752 83.500 C 488.200 76.447, 481.917 68.215, 478.031 65.522 C 468.421 58.861, 452.080 55.452, 434.500 56.439 C 422.461 57.115, 401.980 60.006, 394.500 62.085 C 388.462 63.763, 382.969 67.160, 381.406 70.182 C 379.631 73.614, 378.070 84.325, 377.935 94 L 377.830 101.500 376.608 96.500 C 374.814 89.157, 369.234 78.476, 364.358 73.054 C 344.231 50.667, 306.415 48.850, 284.500 69.216 C 277.208 75.993, 272.618 83.391, 268.984 94.222 L 266.242 102.394 265.511 97.079 C 264.395 88.964, 257.143 75.394, 250.291 68.595 C 242.357 60.725, 231.955 55.626, 220.519 54.003 C 201.760 51.340, 185.991 55.614, 172.867 66.919 L 168 71.111 167.998 67.805 C 167.996 63.656, 165.266 58.201, 162 55.820 C 159.881 54.275, 156.987 53.939, 143 53.614 C 133.925 53.404, 123.800 53.397, 120.500 53.601 M 639.182 54.051 C 618.712 57.716, 602.684 73.071, 596.438 95 C 593.667 104.729, 593.858 122.947, 596.841 133.500 C 604.040 158.956, 624.071 174.030, 650.644 173.985 C 678.729 173.938, 698.547 158.323, 705.352 130.881 L 707.678 121.500 708.178 139 C 708.727 158.257, 709.490 161.371, 714.910 166.469 C 717.639 169.036, 718.977 169.488, 724.784 169.806 C 730.539 170.120, 731.993 169.838, 734.946 167.833 C 736.841 166.546, 739.316 163.920, 740.446 161.997 C 742.384 158.697, 742.484 157.191, 742.208 135.250 C 742.047 122.463, 742.132 112, 742.398 112 C 742.663 112, 752.882 125.309, 765.107 141.575 C 784.410 167.260, 788.002 171.532, 792.412 174.051 C 804.852 181.155, 817.119 178.015, 819.956 167 C 821.015 162.890, 824.769 116.900, 825.679 96.885 C 826.365 81.820, 827.995 77.873, 828.007 91.250 C 828.011 95.787, 828.693 112.270, 829.521 127.878 C 831.186 159.238, 831.660 161.391, 837.724 165.138 C 840.691 166.972, 843.500 167.435, 855.867 168.130 C 874.649 169.185, 893.625 171.568, 907.401 174.600 C 926.066 178.709, 930.580 177.774, 932.929 169.315 C 934.344 164.220, 934.267 163.185, 932.124 158.467 C 928.516 150.523, 916.287 146.190, 891.500 144.072 C 884.350 143.461, 875.462 142.699, 871.750 142.379 L 865 141.797 865 133.399 L 865 125 870.250 124.995 C 873.138 124.992, 884.598 125.517, 895.719 126.162 C 919.138 127.521, 922.823 126.978, 926.044 121.696 C 930.275 114.757, 927.305 106.350, 919.386 102.847 C 914.301 100.597, 906.202 99.935, 880.500 99.667 L 864.500 99.500 864.209 92.370 L 863.917 85.241 869.709 84.506 C 872.894 84.101, 887.933 83.692, 903.129 83.596 L 930.758 83.422 934.347 80.685 C 941.599 75.153, 941.571 64.820, 934.288 59.276 L 930.640 56.500 907.570 56.614 C 882.948 56.736, 852.247 59.521, 844.364 62.348 C 834.868 65.753, 828.232 72.041, 827.845 78 C 827.756 79.375, 827.403 76.515, 827.061 71.645 C 826.458 63.060, 826.329 62.689, 822.800 59.456 C 814.112 51.493, 798.170 52.970, 793.408 62.178 C 792.023 64.856, 791.530 70.625, 790.668 94.241 C 790.090 110.080, 789.270 122.918, 788.844 122.770 C 788.419 122.621, 781.186 113.050, 772.770 101.500 C 750.240 70.577, 749.723 69.914, 744.183 64.750 C 740.055 60.903, 738.364 59.981, 735.293 59.899 C 723.144 59.574, 716.536 61.557, 711.616 67.003 C 706.778 72.358, 705.744 77.035, 706.449 90.367 L 707.037 101.500 704.557 93.500 C 703.194 89.100, 702.060 85.252, 702.039 84.949 C 702.017 84.646, 700.256 81.721, 698.125 78.449 C 690.667 67, 679.562 58.620, 667.500 55.339 C 660.897 53.543, 645.842 52.859, 639.182 54.051 M 506.009 55.143 C 499.184 56.274, 493.286 60.071, 491.421 64.534 C 489.523 69.077, 489.628 71.351, 491.946 75.893 C 493.428 78.799, 495.154 80.267, 499.196 82.060 C 504.073 84.224, 506.245 84.457, 526.204 84.956 L 547.908 85.500 520.068 115.699 C 490.269 148.022, 487.398 151.969, 488.241 159.450 C 488.868 165.011, 491.399 168.417, 497 171.235 C 501.469 173.485, 501.798 173.500, 545 173.500 C 584.740 173.500, 588.909 173.342, 593.237 171.672 C 606.232 166.658, 605.635 150.354, 592.278 145.455 C 588.404 144.033, 583.096 143.615, 564.223 143.245 L 540.946 142.788 548.676 134.144 C 552.927 129.390, 559.127 122.558, 562.453 118.963 C 569.164 111.708, 580.449 99.175, 589.877 88.506 C 596.600 80.899, 600 74.902, 600 70.652 C 600 62.089, 593.474 56.826, 580.678 55.072 C 571.327 53.791, 513.846 53.845, 506.009 55.143 M 126.500 60.692 C 102.872 61.435, 77.567 65.251, 71.533 68.979 C 66.021 72.386, 65.897 74.062, 68.068 115.795 C 70.224 157.242, 70.480 158.559, 76.721 160.349 C 80.905 161.549, 86.120 160.469, 88.972 157.811 C 91.287 155.654, 91.293 155.583, 90.722 136.670 L 90.149 117.693 105.824 118.340 C 114.446 118.695, 126.692 119.278, 133.037 119.635 C 143.268 120.210, 144.774 120.083, 146.341 118.516 C 147.460 117.397, 147.997 115.606, 147.804 113.632 C 147.277 108.222, 144.758 107.716, 115.757 107.194 L 90 106.730 90 91.924 C 90 83.781, 90.404 76.868, 90.898 76.563 C 91.392 76.258, 105.905 75.716, 123.148 75.359 C 140.392 75.002, 155.521 74.334, 156.768 73.873 C 161.033 72.298, 161.988 64.082, 158.135 62.111 C 156.237 61.139, 138.117 60.327, 126.500 60.692 M 200 61.376 C 186.346 63.864, 173.576 73.707, 167.599 86.349 C 162.981 96.118, 161.689 102.528, 161.803 115.120 C 162.001 137.256, 171.194 153.591, 188.104 161.858 C 201.508 168.411, 220.300 168.424, 233.576 161.888 C 241.488 157.993, 251.002 148.242, 254.631 140.308 C 261.920 124.371, 261.714 101.160, 254.151 86.378 C 247.301 72.990, 235.785 64.202, 221.515 61.472 C 212.594 59.765, 208.933 59.748, 200 61.376 M 642.402 60.997 C 626.837 63.279, 614.505 72.283, 607.653 86.365 C 603.273 95.367, 602 101.567, 602 113.889 C 602 137.077, 611.330 153.998, 628.624 162.175 C 642.943 168.946, 663.188 168.248, 676.356 160.531 C 681.719 157.389, 689.688 149.109, 693.314 142.914 C 701.696 128.592, 702.128 102.437, 694.251 86.211 C 690.865 79.237, 681.294 69.420, 674.193 65.639 C 669.007 62.877, 656.481 59.980, 650.500 60.160 C 648.850 60.209, 645.206 60.586, 642.402 60.997 M 311.634 63.088 C 299.448 65.585, 288.528 73.022, 281.831 83.382 C 275.623 92.987, 273.528 101.258, 273.568 116 C 273.597 126.886, 273.944 129.485, 276.253 136.129 C 281.326 150.724, 290.833 160.895, 303.895 165.702 C 310.548 168.150, 312.878 168.495, 322.500 168.463 C 337.495 168.413, 345.901 165.390, 355.808 156.483 C 366.035 147.287, 371.244 133.874, 371.332 116.500 C 371.394 104.340, 369.823 96.423, 365.781 88.525 C 359.753 76.747, 351.032 68.935, 339.513 64.993 C 332.498 62.593, 318.663 61.647, 311.634 63.088 M 502 63.752 C 498.875 65.313, 498.500 65.928, 498.500 69.500 C 498.500 73.167, 498.833 73.667, 502.500 75.500 C 506.141 77.321, 509.090 77.545, 535.374 78 L 564.248 78.500 537.467 107.500 C 492.678 156.001, 492.533 156.196, 496.738 161.870 C 500.088 166.390, 504.359 166.834, 545 166.895 C 582.799 166.952, 589.762 166.431, 593.235 163.287 C 595.301 161.418, 595.543 157.125, 593.723 154.636 C 591.518 151.621, 585.346 151.048, 554.750 151.024 C 538.388 151.011, 525.019 150.662, 525.043 150.250 C 525.066 149.838, 526.754 147.643, 528.793 145.373 C 530.832 143.103, 536.281 137.028, 540.902 131.873 C 545.524 126.718, 551.599 120.020, 554.402 116.990 C 557.206 113.959, 561.525 109.222, 564 106.463 C 566.475 103.704, 572.273 97.292, 576.884 92.215 C 592.538 74.979, 594.576 71.274, 590.943 66.655 C 589.824 65.233, 587.242 63.606, 585.205 63.040 C 582.966 62.418, 566.464 62.010, 543.500 62.007 C 509.319 62.004, 505.148 62.179, 502 63.752 M 801.658 63.261 C 799.320 64.970, 798.316 75.884, 796.995 113.948 C 796.413 130.694, 795.807 144.526, 795.648 144.685 C 795.489 144.845, 790.561 138.343, 784.697 130.237 C 755.337 89.651, 744.512 75.129, 740.729 71.250 C 736.888 67.312, 736.197 67, 731.312 67 C 724.570 67, 718.551 69.418, 715.850 73.210 C 713.750 76.160, 713.735 76.566, 714.459 109.347 C 715.407 152.183, 715.942 157.693, 719.451 160.712 C 722.428 163.272, 727.105 163.675, 731 161.707 C 735.798 159.283, 736.143 155.760, 734.960 121.254 C 734.367 103.946, 734.093 89.573, 734.352 89.315 C 734.611 89.056, 736.739 91.467, 739.081 94.672 C 752.373 112.860, 789.236 161.520, 791.859 164.339 C 799.179 172.209, 810.651 172.922, 812.875 165.647 C 813.404 163.916, 814.105 158.900, 814.433 154.500 C 816.682 124.300, 819.993 74.141, 819.997 70.202 C 820.002 64.938, 816.080 62, 809.045 62 C 805.931 62, 802.606 62.567, 801.658 63.261 M 429 64.039 C 414.697 65.179, 396.960 68.368, 392.324 70.632 C 386.896 73.283, 386.124 76.400, 386.056 95.908 C 385.985 116.812, 388.660 152.742, 390.501 155.604 C 392.087 158.069, 394.466 158.431, 420 160.101 C 440.682 161.453, 457.516 160.814, 464.407 158.414 C 467.852 157.214, 471.298 154.739, 475.980 150.103 C 486.560 139.624, 489.228 131.796, 489.307 111 C 489.358 97.707, 487.675 90.560, 482.479 82 C 476.361 71.923, 470.766 67.961, 459.289 65.581 C 449.387 63.528, 440.857 63.094, 429 64.039 M 892.500 63.687 C 889.200 63.893, 878.080 64.933, 867.788 65.998 C 850.984 67.736, 848.456 68.246, 843.001 70.999 C 839.451 72.792, 836.472 75.065, 835.831 76.472 C 834.795 78.746, 835.546 106.370, 837.661 143.806 C 838.549 159.515, 838.554 159.520, 853.714 160.435 C 874.188 161.670, 897.741 164.782, 912.122 168.152 C 922.663 170.622, 925.129 170.391, 926.071 166.843 C 927.639 160.944, 921.448 156.018, 909.312 153.510 C 901.485 151.893, 878.360 150.010, 866.250 150.004 L 858 150 858 134 L 858 118 871.250 117.994 C 878.538 117.990, 891.293 118.506, 899.596 119.141 C 907.899 119.775, 915.856 120.002, 917.279 119.645 C 922.598 118.310, 921.891 111.749, 916.154 109.184 C 913.071 107.806, 908.205 107.543, 885 107.499 L 857.500 107.446 857.224 92.922 L 856.949 78.398 870.724 77.182 C 878.301 76.514, 894.426 75.974, 906.559 75.983 C 931.045 76.002, 932.333 75.707, 932.333 70.094 C 932.333 64.095, 930.708 63.511, 913.717 63.406 C 905.348 63.354, 895.800 63.480, 892.500 63.687 M 201.008 77.948 C 193.861 80.457, 187.185 87.334, 183.964 95.504 C 181.957 100.593, 181.592 103.316, 181.550 113.500 C 181.505 124.260, 181.770 126.142, 184.118 131.712 C 187.558 139.873, 191.289 144.154, 198 147.642 C 202.651 150.059, 204.658 150.495, 211 150.465 C 223.335 150.408, 231.303 145.062, 236.766 133.179 C 241.416 123.063, 241.558 104.571, 237.064 94.411 C 230.553 79.694, 215.548 72.842, 201.008 77.948 M 419 76.496 C 418.175 76.703, 415.336 77.158, 412.691 77.507 L 407.881 78.140 408.191 112.488 C 408.361 131.379, 408.761 147.096, 409.080 147.415 C 409.399 147.733, 418.399 148.107, 429.080 148.247 C 447.476 148.487, 448.719 148.383, 452.643 146.284 C 458.114 143.358, 463.464 136.965, 466.204 130.079 C 468.081 125.361, 468.423 122.570, 468.423 112 C 468.423 97.133, 466.466 90.753, 459.913 84.265 C 454.116 78.525, 448.165 76.791, 433 76.423 C 426.125 76.256, 419.825 76.289, 419 76.496 M 641.333 78.011 C 636.432 79.609, 634.236 81.056, 630.637 85.059 C 623.516 92.979, 621.621 99.031, 621.575 114 C 621.534 127.750, 622.562 131.385, 629.044 140.412 C 635.409 149.275, 648.037 153.062, 659.355 149.502 C 666.842 147.147, 671.907 142.563, 676.055 134.391 C 679.496 127.612, 679.500 127.589, 679.500 113.552 C 679.500 100.113, 679.375 99.246, 676.638 93.671 C 669.546 79.228, 656.013 73.225, 641.333 78.011 M 314.324 79.380 C 302.022 83.403, 296.220 91.139, 293.394 107.289 C 290.098 126.123, 297.193 144.009, 310.533 150.495 C 316.305 153.302, 329.041 153.187, 334.500 150.278 C 340.865 146.887, 344.856 142.532, 348.259 135.265 C 353.912 123.192, 353.290 104.748, 346.839 93.142 C 345.202 90.196, 342.655 86.680, 341.181 85.329 C 334.721 79.411, 322.505 76.704, 314.324 79.380 M 158.500 80.918 C 157.400 81.353, 144.434 82.016, 129.687 82.392 C 114.941 82.768, 101.553 83.339, 99.937 83.663 C 97.015 84.247, 97 84.286, 97 91.435 L 97 98.621 120.313 99.719 C 144.090 100.839, 148.793 101.693, 153.213 105.693 C 154.896 107.216, 155 107.110, 155 103.873 C 155 99.778, 156.896 92.476, 159.835 85.250 C 162.027 79.861, 161.934 79.559, 158.500 80.918 M 420.094 83.676 L 414.687 84.115 415.343 112.224 C 415.704 127.684, 416.112 140.423, 416.249 140.534 C 417.195 141.298, 442.229 141.777, 445.201 141.089 C 450.725 139.811, 454.577 136.242, 458.226 129.021 C 461.314 122.909, 461.499 121.946, 461.475 112.021 C 461.438 96.864, 457.828 89.333, 448.789 85.556 C 444.895 83.929, 429.441 82.917, 420.094 83.676 M 202 85.118 C 190.844 89.544, 184.953 109.608, 189.964 126.108 C 192.891 135.744, 198.037 141.214, 205.715 142.852 C 214.046 144.628, 219.945 142.851, 225.680 136.835 C 230.729 131.541, 233 124.435, 233 113.938 C 233 99.416, 228.069 89.151, 219.282 85.381 C 215.599 83.800, 205.702 83.650, 202 85.118 M 640.984 85.852 C 636.559 88.204, 631.414 94.858, 629.820 100.292 C 629.141 102.606, 628.571 109, 628.553 114.501 C 628.525 123.463, 628.812 125.096, 631.324 130.230 C 641.301 150.623, 667.046 147.028, 672.078 124.540 C 673.898 116.412, 672.895 102.339, 670.112 96.942 C 667.150 91.199, 663.313 87.102, 659.282 85.377 C 654.604 83.375, 645.184 83.620, 640.984 85.852 M 312.420 87.831 C 304.315 92.917, 300 102.750, 300 116.134 C 300 125.923, 302.199 133.108, 306.731 138.124 C 311.772 143.704, 315.383 145.344, 322.667 145.361 C 330.234 145.378, 335.604 142.270, 340.008 135.326 C 348.473 121.978, 345.730 98.520, 334.661 89.600 C 331.235 86.839, 329.999 86.474, 323.161 86.203 C 316.959 85.956, 314.913 86.266, 312.420 87.831 M 747.475 182.041 C 746.830 183.084, 747.043 184.429, 749.094 192.250 C 750.538 197.759, 753.217 197.300, 754.932 191.250 L 756.279 186.500 757.698 191.250 C 758.734 194.719, 759.621 196, 760.987 196 C 762.459 196, 763.112 194.778, 764.047 190.276 C 764.700 187.127, 765.455 183.977, 765.724 183.276 C 765.994 182.574, 765.536 182, 764.707 182 C 763.715 182, 762.767 183.797, 761.937 187.250 C 760.596 192.824, 760.304 192.603, 758.552 184.684 C 757.591 180.340, 754.812 181.610, 753.502 186.992 C 752.320 191.846, 751.635 191.562, 750.593 185.785 C 749.881 181.842, 748.570 180.268, 747.475 182.041 M 810 188.500 C 810 194.360, 810.315 196, 811.440 196 C 812.381 196, 812.987 194.703, 813.190 192.250 C 813.399 189.721, 813.989 188.500, 815 188.500 C 816.011 188.500, 816.601 189.721, 816.810 192.250 C 817.013 194.703, 817.619 196, 818.560 196 C 819.598 196, 820 194.754, 820 191.535 C 820 186.786, 817.791 184.375, 814.572 185.611 C 813.390 186.064, 813 185.567, 813 183.607 C 813 181.956, 812.450 181, 811.500 181 C 810.300 181, 810 182.500, 810 188.500 M 862.667 181.667 C 862.300 182.033, 862 183.121, 862 184.083 C 862 185.046, 861.438 186.096, 860.750 186.417 C 859.750 186.883, 859.750 187.117, 860.750 187.583 C 861.438 187.904, 862 189.928, 862 192.083 C 862 194.898, 862.422 196, 863.500 196 C 864.578 196, 865 194.898, 865 192.083 C 865 189.928, 865.562 187.904, 866.250 187.583 C 867.250 187.117, 867.250 186.883, 866.250 186.417 C 864.764 185.723, 864.565 183, 866 183 C 866.550 183, 867 182.550, 867 182 C 867 180.883, 863.704 180.629, 862.667 181.667 M 778 183 C 778 183.550, 778.498 184, 779.107 184 C 779.716 184, 779.955 184.675, 779.638 185.500 C 779.322 186.325, 779.451 187, 779.924 187 C 781.066 187, 782.157 184.063, 781.444 182.910 C 780.684 181.680, 778 181.750, 778 183 M 931 187.083 C 931 193.691, 933.370 193.344, 933.805 186.672 C 934.046 182.982, 933.783 182, 932.555 182 C 931.352 182, 931 183.152, 931 187.083 M 768.223 186.557 C 765.774 188.272, 765.211 192.811, 767.200 194.800 C 768.827 196.427, 776 196.378, 776 194.740 C 776 194.030, 774.800 193.485, 773.250 193.490 C 769.639 193.503, 769.182 191.613, 772.748 191.414 C 776.736 191.191, 777 191.103, 777 190 C 777 188.567, 773.235 185, 771.723 185 C 771.020 185, 769.445 185.701, 768.223 186.557 M 784 190.750 C 784 194.636, 784.353 196.051, 785.250 195.756 C 785.938 195.531, 786.643 193.892, 786.818 192.116 C 786.992 190.339, 787.780 188.638, 788.568 188.336 C 791.147 187.346, 790.096 185.333, 787 185.333 C 784.036 185.333, 784 185.398, 784 190.750 M 793.166 186.596 C 788.280 190.019, 792.722 198.148, 798.343 196.069 C 801.709 194.824, 801.600 192.930, 798.202 193.610 C 796.492 193.952, 794.955 193.737, 794.562 193.101 C 793.877 191.991, 794.215 191.853, 798.167 191.625 C 801.042 191.459, 801.621 189.344, 799.448 186.942 C 797.313 184.583, 796.133 184.518, 793.166 186.596 M 824.223 186.557 C 821.823 188.237, 821.388 190.988, 823.035 194.066 C 824.281 196.393, 832 196.916, 832 194.673 C 832 193.780, 831.058 193.485, 829.118 193.769 C 827.534 194.002, 825.932 193.699, 825.559 193.096 C 825.158 192.447, 825.721 191.949, 826.941 191.875 C 828.073 191.806, 829.450 191.637, 830 191.500 C 830.550 191.363, 831.450 191.194, 832 191.125 C 833.593 190.926, 833.166 189.166, 831 187 C 828.593 184.593, 827.160 184.499, 824.223 186.557 M 834.589 185.744 C 834.265 186.068, 834 188.508, 834 191.167 C 834 194.796, 834.374 196, 835.500 196 C 836.494 196, 837 195.006, 837 193.057 C 837 191.162, 837.780 189.567, 839.190 188.580 C 840.394 187.736, 841.070 186.736, 840.691 186.358 C 839.778 185.445, 835.335 184.998, 834.589 185.744 M 844.223 186.557 C 838.994 190.219, 843.689 198.154, 849.750 195.901 C 853.028 194.682, 852.502 193.182, 848.857 193.353 C 847.128 193.434, 845.539 193.008, 845.325 192.406 C 845.092 191.749, 846.235 191.350, 848.193 191.406 C 851.962 191.515, 853.064 189.207, 850.479 186.621 C 848.451 184.594, 847.045 184.580, 844.223 186.557 M 870.223 186.557 C 867.774 188.272, 867.211 192.811, 869.200 194.800 C 871.154 196.754, 876.778 196.283, 877.965 194.066 C 879.501 191.195, 879.233 189.233, 877 187 C 874.593 184.593, 873.160 184.499, 870.223 186.557 M 881.464 185.870 C 881.209 186.125, 881 188.508, 881 191.167 C 881 194.796, 881.374 196, 882.500 196 C 883.545 196, 884 194.948, 884 192.535 C 884 190.046, 884.588 188.756, 886.086 187.954 C 887.233 187.340, 887.870 186.537, 887.503 186.169 C 886.736 185.402, 882.159 185.175, 881.464 185.870 M 895 187.050 C 895 188.177, 895.719 190.489, 896.597 192.188 C 897.845 194.600, 897.954 195.805, 897.097 197.686 C 895.653 200.855, 895.706 201.207, 897.568 200.823 C 899.158 200.495, 905.146 187.139, 904.325 185.750 C 903.395 184.176, 902.154 185.119, 901.072 188.223 L 899.949 191.445 897.989 188.223 C 895.713 184.480, 895 184.200, 895 187.050 M 908.185 185.684 C 906.099 186.519, 904.932 190.691, 906 193.500 C 906.751 195.475, 907.649 196, 910.275 196 C 914.318 196, 916 194.489, 916 190.857 C 916 186.908, 911.904 184.196, 908.185 185.684 M 918.683 185.650 C 918.308 186.026, 918 188.033, 918 190.110 C 918 192.792, 918.598 194.306, 920.065 195.333 C 924.280 198.285, 928.396 194.763, 927.810 188.704 C 927.392 184.387, 925.620 185.026, 925 189.717 C 924.338 194.724, 921.631 194.924, 921.179 190 C 920.839 186.296, 919.817 184.516, 918.683 185.650 M 871.362 189.500 C 870.567 191.572, 871.646 194, 873.362 194 C 875.078 194, 876.157 191.572, 875.362 189.500 C 875.045 188.675, 874.145 188, 873.362 188 C 872.578 188, 871.678 188.675, 871.362 189.500 M 908.390 189.426 C 907.480 191.797, 908.767 194.191, 910.747 193.810 C 911.854 193.597, 912.500 192.561, 912.500 191 C 912.500 188.149, 909.344 186.941, 908.390 189.426" stroke="none" fill="#1a1443" fill-rule="evenodd"/><path d="M 118.250 53.716 C 119.763 53.945, 122.237 53.945, 123.750 53.716 C 125.263 53.487, 124.025 53.300, 121 53.300 C 117.975 53.300, 116.737 53.487, 118.250 53.716 M 911.280 55.736 C 913.909 55.943, 917.959 55.940, 920.280 55.731 C 922.601 55.521, 920.450 55.352, 915.500 55.355 C 910.550 55.358, 908.651 55.530, 911.280 55.736 M 126.500 60.692 C 102.872 61.435, 77.567 65.251, 71.533 68.979 C 66.021 72.386, 65.897 74.062, 68.068 115.795 C 70.224 157.242, 70.480 158.559, 76.721 160.349 C 80.905 161.549, 86.120 160.469, 88.972 157.811 C 91.287 155.654, 91.293 155.583, 90.722 136.670 L 90.149 117.693 105.824 118.340 C 114.446 118.695, 126.692 119.278, 133.037 119.635 C 143.268 120.210, 144.774 120.083, 146.341 118.516 C 147.460 117.397, 147.997 115.606, 147.804 113.632 C 147.277 108.222, 144.758 107.716, 115.757 107.194 L 90 106.730 90 91.924 C 90 83.781, 90.404 76.868, 90.898 76.563 C 91.392 76.258, 105.905 75.716, 123.148 75.359 C 140.392 75.002, 155.521 74.334, 156.768 73.873 C 161.033 72.298, 161.988 64.082, 158.135 62.111 C 156.237 61.139, 138.117 60.327, 126.500 60.692 M 200 61.376 C 186.346 63.864, 173.576 73.707, 167.599 86.349 C 162.981 96.118, 161.689 102.528, 161.803 115.120 C 162.001 137.256, 171.194 153.591, 188.104 161.858 C 201.508 168.411, 220.300 168.424, 233.576 161.888 C 241.488 157.993, 251.002 148.242, 254.631 140.308 C 261.920 124.371, 261.714 101.160, 254.151 86.378 C 247.301 72.990, 235.785 64.202, 221.515 61.472 C 212.594 59.765, 208.933 59.748, 200 61.376 M 642.402 60.997 C 626.837 63.279, 614.505 72.283, 607.653 86.365 C 603.273 95.367, 602 101.567, 602 113.889 C 602 137.077, 611.330 153.998, 628.624 162.175 C 642.943 168.946, 663.188 168.248, 676.356 160.531 C 681.719 157.389, 689.688 149.109, 693.314 142.914 C 701.696 128.592, 702.128 102.437, 694.251 86.211 C 690.865 79.237, 681.294 69.420, 674.193 65.639 C 669.007 62.877, 656.481 59.980, 650.500 60.160 C 648.850 60.209, 645.206 60.586, 642.402 60.997 M 311.634 63.088 C 299.448 65.585, 288.528 73.022, 281.831 83.382 C 275.623 92.987, 273.528 101.258, 273.568 116 C 273.597 126.886, 273.944 129.485, 276.253 136.129 C 281.326 150.724, 290.833 160.895, 303.895 165.702 C 310.548 168.150, 312.878 168.495, 322.500 168.463 C 337.495 168.413, 345.901 165.390, 355.808 156.483 C 366.035 147.287, 371.244 133.874, 371.332 116.500 C 371.394 104.340, 369.823 96.423, 365.781 88.525 C 359.753 76.747, 351.032 68.935, 339.513 64.993 C 332.498 62.593, 318.663 61.647, 311.634 63.088 M 502 63.752 C 498.875 65.313, 498.500 65.928, 498.500 69.500 C 498.500 73.167, 498.833 73.667, 502.500 75.500 C 506.141 77.321, 509.090 77.545, 535.374 78 L 564.248 78.500 537.467 107.500 C 492.678 156.001, 492.533 156.196, 496.738 161.870 C 500.088 166.390, 504.359 166.834, 545 166.895 C 582.799 166.952, 589.762 166.431, 593.235 163.287 C 595.301 161.418, 595.543 157.125, 593.723 154.636 C 591.518 151.621, 585.346 151.048, 554.750 151.024 C 538.388 151.011, 525.019 150.662, 525.043 150.250 C 525.066 149.838, 526.754 147.643, 528.793 145.373 C 530.832 143.103, 536.281 137.028, 540.902 131.873 C 545.524 126.718, 551.599 120.020, 554.402 116.990 C 557.206 113.959, 561.525 109.222, 564 106.463 C 566.475 103.704, 572.273 97.292, 576.884 92.215 C 592.538 74.979, 594.576 71.274, 590.943 66.655 C 589.824 65.233, 587.242 63.606, 585.205 63.040 C 582.966 62.418, 566.464 62.010, 543.500 62.007 C 509.319 62.004, 505.148 62.179, 502 63.752 M 801.658 63.261 C 799.320 64.970, 798.316 75.884, 796.995 113.948 C 796.413 130.694, 795.807 144.526, 795.648 144.685 C 795.489 144.845, 790.561 138.343, 784.697 130.237 C 755.337 89.651, 744.512 75.129, 740.729 71.250 C 736.888 67.312, 736.197 67, 731.312 67 C 724.570 67, 718.551 69.418, 715.850 73.210 C 713.750 76.160, 713.735 76.566, 714.459 109.347 C 715.407 152.183, 715.942 157.693, 719.451 160.712 C 722.428 163.272, 727.105 163.675, 731 161.707 C 735.798 159.283, 736.143 155.760, 734.960 121.254 C 734.367 103.946, 734.093 89.573, 734.352 89.315 C 734.611 89.056, 736.739 91.467, 739.081 94.672 C 752.373 112.860, 789.236 161.520, 791.859 164.339 C 799.179 172.209, 810.651 172.922, 812.875 165.647 C 813.404 163.916, 814.105 158.900, 814.433 154.500 C 816.682 124.300, 819.993 74.141, 819.997 70.202 C 820.002 64.938, 816.080 62, 809.045 62 C 805.931 62, 802.606 62.567, 801.658 63.261 M 429 64.039 C 414.697 65.179, 396.960 68.368, 392.324 70.632 C 386.896 73.283, 386.124 76.400, 386.056 95.908 C 385.985 116.812, 388.660 152.742, 390.501 155.604 C 392.087 158.069, 394.466 158.431, 420 160.101 C 440.682 161.453, 457.516 160.814, 464.407 158.414 C 467.852 157.214, 471.298 154.739, 475.980 150.103 C 486.560 139.624, 489.228 131.796, 489.307 111 C 489.358 97.707, 487.675 90.560, 482.479 82 C 476.361 71.923, 470.766 67.961, 459.289 65.581 C 449.387 63.528, 440.857 63.094, 429 64.039 M 892.500 63.687 C 889.200 63.893, 878.080 64.933, 867.788 65.998 C 850.984 67.736, 848.456 68.246, 843.001 70.999 C 839.451 72.792, 836.472 75.065, 835.831 76.472 C 834.795 78.746, 835.546 106.370, 837.661 143.806 C 838.549 159.515, 838.554 159.520, 853.714 160.435 C 874.188 161.670, 897.741 164.782, 912.122 168.152 C 922.663 170.622, 925.129 170.391, 926.071 166.843 C 927.639 160.944, 921.448 156.018, 909.312 153.510 C 901.485 151.893, 878.360 150.010, 866.250 150.004 L 858 150 858 134 L 858 118 871.250 117.994 C 878.538 117.990, 891.293 118.506, 899.596 119.141 C 907.899 119.775, 915.856 120.002, 917.279 119.645 C 922.598 118.310, 921.891 111.749, 916.154 109.184 C 913.071 107.806, 908.205 107.543, 885 107.499 L 857.500 107.446 857.224 92.922 L 856.949 78.398 870.724 77.182 C 878.301 76.514, 894.426 75.974, 906.559 75.983 C 931.045 76.002, 932.333 75.707, 932.333 70.094 C 932.333 64.095, 930.708 63.511, 913.717 63.406 C 905.348 63.354, 895.800 63.480, 892.500 63.687 M 201.008 77.948 C 193.861 80.457, 187.185 87.334, 183.964 95.504 C 181.957 100.593, 181.592 103.316, 181.550 113.500 C 181.505 124.260, 181.770 126.142, 184.118 131.712 C 187.558 139.873, 191.289 144.154, 198 147.642 C 202.651 150.059, 204.658 150.495, 211 150.465 C 223.335 150.408, 231.303 145.062, 236.766 133.179 C 241.416 123.063, 241.558 104.571, 237.064 94.411 C 230.553 79.694, 215.548 72.842, 201.008 77.948 M 419 76.496 C 418.175 76.703, 415.336 77.158, 412.691 77.507 L 407.881 78.140 408.191 112.488 C 408.361 131.379, 408.761 147.096, 409.080 147.415 C 409.399 147.733, 418.399 148.107, 429.080 148.247 C 447.476 148.487, 448.719 148.383, 452.643 146.284 C 458.114 143.358, 463.464 136.965, 466.204 130.079 C 468.081 125.361, 468.423 122.570, 468.423 112 C 468.423 97.133, 466.466 90.753, 459.913 84.265 C 454.116 78.525, 448.165 76.791, 433 76.423 C 426.125 76.256, 419.825 76.289, 419 76.496 M 641.333 78.011 C 636.432 79.609, 634.236 81.056, 630.637 85.059 C 623.516 92.979, 621.621 99.031, 621.575 114 C 621.534 127.750, 622.562 131.385, 629.044 140.412 C 635.409 149.275, 648.037 153.062, 659.355 149.502 C 666.842 147.147, 671.907 142.563, 676.055 134.391 C 679.496 127.612, 679.500 127.589, 679.500 113.552 C 679.500 100.113, 679.375 99.246, 676.638 93.671 C 669.546 79.228, 656.013 73.225, 641.333 78.011 M 314.324 79.380 C 302.022 83.403, 296.220 91.139, 293.394 107.289 C 290.098 126.123, 297.193 144.009, 310.533 150.495 C 316.305 153.302, 329.041 153.187, 334.500 150.278 C 340.865 146.887, 344.856 142.532, 348.259 135.265 C 353.912 123.192, 353.290 104.748, 346.839 93.142 C 345.202 90.196, 342.655 86.680, 341.181 85.329 C 334.721 79.411, 322.505 76.704, 314.324 79.380 M 125.768 82.725 C 127.565 82.947, 130.265 82.943, 131.768 82.715 C 133.271 82.486, 131.800 82.304, 128.500 82.310 C 125.200 82.315, 123.971 82.502, 125.768 82.725 M 144.750 82.723 C 146.537 82.945, 149.463 82.945, 151.250 82.723 C 153.037 82.502, 151.575 82.320, 148 82.320 C 144.425 82.320, 142.963 82.502, 144.750 82.723 M 427.728 83.722 C 429.503 83.943, 432.653 83.946, 434.728 83.730 C 436.802 83.513, 435.350 83.333, 431.500 83.328 C 427.650 83.324, 425.952 83.501, 427.728 83.722 M 826 87.441 C 826 89.884, 826.450 92.160, 827 92.500 C 827.616 92.881, 828 91.177, 828 88.059 C 828 85.277, 827.550 83, 827 83 C 826.450 83, 826 84.998, 826 87.441 M 897.750 83.737 C 900.638 83.939, 905.362 83.939, 908.250 83.737 C 911.138 83.535, 908.775 83.370, 903 83.370 C 897.225 83.370, 894.862 83.535, 897.750 83.737 M 97.343 91.500 C 97.346 95.900, 97.522 97.576, 97.733 95.224 C 97.945 92.872, 97.942 89.272, 97.727 87.224 C 97.512 85.176, 97.339 87.100, 97.343 91.500 M 790.320 91 C 790.320 94.575, 790.502 96.037, 790.723 94.250 C 790.945 92.463, 790.945 89.537, 790.723 87.750 C 790.502 85.963, 790.320 87.425, 790.320 91 M 864.336 92 C 864.336 96.125, 864.513 97.813, 864.728 95.750 C 864.944 93.688, 864.944 90.313, 864.728 88.250 C 864.513 86.188, 864.336 87.875, 864.336 92 M 415.409 103.500 C 415.408 112.850, 415.558 116.810, 415.743 112.299 C 415.928 107.789, 415.929 100.139, 415.745 95.299 C 415.562 90.460, 415.410 94.150, 415.409 103.500 M 59.300 93 C 59.300 96.025, 59.487 97.263, 59.716 95.750 C 59.945 94.237, 59.945 91.763, 59.716 90.250 C 59.487 88.737, 59.300 89.975, 59.300 93 M 706 91.059 C 706 91.641, 705.532 91.829, 704.960 91.475 C 704.276 91.052, 704.160 91.802, 704.622 93.666 C 706.497 101.229, 706.828 101.530, 706.914 95.750 C 706.961 92.588, 706.775 90, 706.500 90 C 706.225 90, 706 90.477, 706 91.059 M 120.250 99.728 C 122.313 99.944, 125.688 99.944, 127.750 99.728 C 129.813 99.513, 128.125 99.336, 124 99.336 C 119.875 99.336, 118.188 99.513, 120.250 99.728 M 873.280 99.736 C 875.909 99.943, 879.959 99.940, 882.280 99.731 C 884.601 99.521, 882.450 99.352, 877.500 99.355 C 872.550 99.358, 870.651 99.530, 873.280 99.736 M 891.280 99.736 C 893.909 99.943, 897.959 99.940, 900.280 99.731 C 902.601 99.521, 900.450 99.352, 895.500 99.355 C 890.550 99.358, 888.651 99.530, 891.280 99.736 M 828.300 112 C 828.300 115.025, 828.487 116.263, 828.716 114.750 C 828.945 113.237, 828.945 110.763, 828.716 109.250 C 828.487 107.737, 828.300 108.975, 828.300 112 M 628.320 114 C 628.320 117.575, 628.502 119.037, 628.723 117.250 C 628.945 115.463, 628.945 112.537, 628.723 110.750 C 628.502 108.963, 628.320 110.425, 628.320 114 M 789.175 117.809 C 789.048 120.933, 788.656 121.924, 787.750 121.412 C 786.758 120.852, 786.754 120.981, 787.733 122.037 C 789.561 124.008, 790.172 122.732, 789.737 117.854 L 789.349 113.500 789.175 117.809 M 742.343 127.500 C 742.346 131.900, 742.522 133.576, 742.733 131.224 C 742.945 128.872, 742.942 125.272, 742.727 123.224 C 742.512 121.176, 742.339 123.100, 742.343 127.500 M 706.765 124.447 C 706.508 125.793, 706.629 128.605, 707.034 130.697 C 707.694 134.108, 707.782 133.856, 707.885 128.250 C 708.005 121.743, 707.567 120.255, 706.765 124.447 M 869.784 125.738 C 872.689 125.941, 877.189 125.939, 879.784 125.734 C 882.378 125.528, 880 125.363, 874.500 125.365 C 869 125.368, 866.878 125.536, 869.784 125.738 M 98.343 148.500 C 98.346 152.900, 98.522 154.576, 98.733 152.224 C 98.945 149.872, 98.942 146.272, 98.727 144.224 C 98.512 142.176, 98.339 144.100, 98.343 148.500 M 207.750 174.723 C 209.537 174.945, 212.463 174.945, 214.250 174.723 C 216.037 174.502, 214.575 174.320, 211 174.320 C 207.425 174.320, 205.963 174.502, 207.750 174.723 M 525.684 174.748 C 536.235 174.910, 553.785 174.911, 564.684 174.749 C 575.583 174.587, 566.950 174.455, 545.500 174.455 C 524.050 174.454, 515.133 174.587, 525.684 174.748 M 647.250 174.728 C 649.313 174.944, 652.688 174.944, 654.750 174.728 C 656.813 174.513, 655.125 174.336, 651 174.336 C 646.875 174.336, 645.188 174.513, 647.250 174.728 M 809.328 188.500 C 809.333 192.350, 809.513 193.802, 809.730 191.728 C 809.946 189.653, 809.943 186.503, 809.722 184.728 C 809.501 182.952, 809.324 184.650, 809.328 188.500 M 783.185 190.691 C 782.996 195.998, 784.259 198.148, 786.337 196.054 C 787.224 195.160, 787.097 195.035, 785.805 195.527 C 784.368 196.074, 784.054 195.361, 783.740 190.836 L 783.370 185.500 783.185 190.691 M 789.167 187.667 C 788.482 188.400, 788.358 189, 788.891 189 C 789.424 189, 790.078 190.012, 790.344 191.250 C 790.769 193.225, 790.807 193.195, 790.656 191 C 790.562 189.625, 791.110 188.012, 791.875 187.417 C 793.057 186.496, 793.051 186.333, 791.838 186.333 C 791.054 186.333, 789.852 186.933, 789.167 187.667 M 921.250 190.250 C 921.581 194.551, 924.461 194.766, 924.593 190.500 C 924.681 187.670, 924.663 187.655, 924.280 190.250 C 923.742 193.889, 922.268 193.753, 921.563 190 C 921.008 187.042, 921.004 187.046, 921.250 190.250 M 908.362 189.500 C 907.146 192.669, 910.746 195.839, 912.442 193.093 C 912.751 192.595, 912.102 192.422, 911.001 192.710 C 909.441 193.118, 909 192.741, 909 191 C 909 189.259, 909.441 188.882, 911.001 189.290 C 912.102 189.578, 912.751 189.405, 912.442 188.907 C 911.558 187.477, 908.995 187.849, 908.362 189.500 M 816.381 192.492 C 816.472 195.534, 816.921 196.521, 818.270 196.640 C 819.400 196.740, 819.511 196.630, 818.576 196.336 C 817.758 196.078, 816.926 194.249, 816.687 192.188 L 816.262 188.500 816.381 192.492" stroke="none" fill="#09a4a7" fill-rule="evenodd"/></svg>